<svg xmlns="http://www.w3.org/2000/svg" xmlns:xlink="http://www.w3.org/1999/xlink" width="512" zoomAndPan="magnify" viewBox="0 0 384 383.999986" height="512" preserveAspectRatio="xMidYMid meet" version="1.0"><defs><clipPath id="a58dcec832"><path d="M 22 29 L 361 29 L 361 355.820312 L 22 355.820312 Z M 22 29 " clip-rule="nonzero"/></clipPath></defs><g clip-path="url(#a58dcec832)"><path fill="#000000" d="M 342.839844 199.4375 L 328.976562 199.4375 L 328.976562 341.433594 C 328.917969 342.390625 328.765625 343.332031 328.523438 344.261719 C 328.277344 345.1875 327.945312 346.082031 327.527344 346.945312 C 327.109375 347.808594 326.609375 348.625 326.03125 349.390625 C 325.453125 350.15625 324.804688 350.855469 324.085938 351.496094 C 323.371094 352.136719 322.601562 352.699219 321.773438 353.1875 C 320.945312 353.675781 320.082031 354.078125 319.175781 354.398438 C 318.269531 354.71875 317.339844 354.945312 316.390625 355.085938 C 315.441406 355.222656 314.484375 355.269531 313.527344 355.21875 L 231.625 355.21875 L 231.625 258.402344 C 231.625 257.738281 231.5625 257.078125 231.429688 256.429688 C 231.300781 255.777344 231.109375 255.144531 230.855469 254.53125 C 230.601562 253.917969 230.289062 253.335938 229.917969 252.78125 C 229.550781 252.230469 229.132812 251.71875 228.660156 251.25 C 228.191406 250.78125 227.679688 250.359375 227.128906 249.992188 C 226.574219 249.621094 225.992188 249.308594 225.378906 249.054688 C 224.761719 248.800781 224.128906 248.609375 223.476562 248.480469 C 222.824219 248.351562 222.167969 248.285156 221.503906 248.285156 L 162.082031 248.285156 C 161.414062 248.285156 160.757812 248.347656 160.105469 248.476562 C 159.453125 248.609375 158.820312 248.800781 158.207031 249.054688 C 157.589844 249.308594 157.007812 249.621094 156.453125 249.988281 C 155.902344 250.359375 155.390625 250.777344 154.921875 251.246094 C 154.449219 251.71875 154.03125 252.226562 153.660156 252.78125 C 153.292969 253.332031 152.980469 253.917969 152.726562 254.53125 C 152.472656 255.144531 152.28125 255.777344 152.152344 256.425781 C 152.023438 257.078125 151.957031 257.738281 151.957031 258.402344 L 151.957031 355.214844 L 70.050781 355.214844 C 69.09375 355.265625 68.140625 355.222656 67.195312 355.085938 C 66.246094 354.949219 65.320312 354.722656 64.417969 354.40625 C 63.515625 354.089844 62.652344 353.6875 61.828125 353.203125 C 61.003906 352.714844 60.234375 352.152344 59.519531 351.515625 C 58.808594 350.878906 58.160156 350.179688 57.585938 349.417969 C 57.007812 348.652344 56.511719 347.839844 56.09375 346.980469 C 55.679688 346.117188 55.347656 345.226562 55.109375 344.300781 C 54.867188 343.375 54.71875 342.4375 54.660156 341.480469 L 54.660156 199.4375 L 40.734375 199.4375 C 25.304688 199.4375 16.941406 184.921875 27.054688 175.609375 L 179.4375 34.902344 C 180.390625 34.097656 181.40625 33.378906 182.488281 32.753906 C 183.566406 32.125 184.695312 31.597656 185.867188 31.171875 C 187.039062 30.742188 188.242188 30.421875 189.472656 30.203125 C 190.703125 29.988281 191.941406 29.882812 193.191406 29.882812 C 194.441406 29.886719 195.679688 29.996094 196.910156 30.21875 C 198.136719 30.441406 199.339844 30.765625 200.507812 31.199219 C 201.679688 31.632812 202.804688 32.164062 203.882812 32.796875 C 204.960938 33.425781 205.972656 34.144531 206.925781 34.957031 C 256.8125 81.855469 306.71875 128.757812 356.652344 175.660156 C 366.574219 185.0625 358.21875 199.4375 342.839844 199.4375 Z M 342.839844 199.4375 " fill-opacity="1" fill-rule="nonzero"/></g></svg>